<?xml version="1.0" encoding="UTF-8" standalone="no"?><svg xmlns="http://www.w3.org/2000/svg" version="1.1" xmlns:xlink="http://www.w3.org/1999/xlink" xmlns:svgjs="http://svgjs.dev/svgjs" width="128" height="128" viewBox="0 0 128 128"><g transform="matrix(0.8046875,0,0,0.8046875,12.760752631578946,31.638486328124998)"><svg viewBox="0 0 95 60" data-background-color="#ffffff" preserveAspectRatio="xMidYMid meet" height="80" width="128" xmlns="http://www.w3.org/2000/svg" xmlns:xlink="http://www.w3.org/1999/xlink"><g id="tight-bounds" transform="matrix(1,0,0,1,-0.24049999999999727,0.1621875000000017)"><svg viewBox="0 0 95.481 59.675625" height="59.675625" width="95.481"><g><svg viewBox="0 0 95.481 59.675625" height="59.675625" width="95.481"><g><svg viewBox="0 0 95.481 59.675625" height="59.675625" width="95.481"><g id="textblocktransform"><svg viewBox="0 0 95.481 59.675625" height="59.675625" width="95.481" id="textblock"><g><svg viewBox="0 0 95.481 59.675625" height="59.675625" width="95.481"><g><svg viewBox="0 0 95.481 59.675625" height="59.675625" width="95.481"><g><svg xmlns="http://www.w3.org/2000/svg" xmlns:xlink="http://www.w3.org/1999/xlink" version="1.1" x="0" y="0" viewBox="0 0 100 62.5" style="enable-background:new 0 0 100 62.5;" xml:space="preserve" width="95.481" height="59.675625" class="icon-icon-0" data-fill-palette-color="accent" id="icon-0"><path d="M75 12.5c-1.184 0-2.307 0.189-3.442 0.348C67.199 5.146 59.143 0 50 0c-9.338 0-17.395 5.206-21.691 12.812C27.209 12.665 26.111 12.5 25 12.5c-13.781 0-25 11.212-25 25 0 13.794 11.219 25 25 25h50c13.781 0 25-11.206 25-25C100 23.712 88.781 12.5 75 12.5zM75 50H25c-6.896 0-12.5-5.609-12.5-12.5 0-6.854 6.066-12.14 12.512-12.329 0.025 2.948 0.537 5.841 1.562 8.575l11.707-4.382C37.756 27.979 37.5 26.508 37.5 25c0-6.891 5.604-12.5 12.5-12.5 4.041 0 7.703 2.002 9.998 5.121C53.967 22.187 50 29.357 50 37.5h12.5C62.5 30.609 68.104 25 75 25s12.5 5.609 12.5 12.5S81.896 50 75 50z" fill="#5ebc67" data-fill-palette-color="accent"></path></svg></g></svg></g></svg></g></svg></g></svg></g></svg></g><defs></defs></svg><rect width="95.481" height="59.675625" fill="none" stroke="none" visibility="hidden"></rect></g></svg></g></svg>